ffmpeg version 6.1.1-essentials_build-www.gyan.dev Copyright (c) 2000-2023 the FFmpeg developers
  built with gcc 12.2.0 (Rev10, Built by MSYS2 project)
  configuration: --enable-gpl --enable-version3 --enable-static --pkg-config=pkgconf --disable-w32threads --disable-autodetect --enable-fontconfig --enable-iconv --enable-gnutls --enable-libxml2 --enable-gmp --enable-bzlib --enable-lzma --enable-zlib --enable-libsrt --enable-libssh --enable-libzmq --enable-avisynth --enable-sdl2 --enable-libwebp --enable-libx264 --enable-libx265 --enable-libxvid --enable-libaom --enable-libopenjpeg --enable-libvpx --enable-mediafoundation --enable-libass --enable-libfreetype --enable-libfribidi --enable-libharfbuzz --enable-libvidstab --enable-libvmaf --enable-libzimg --enable-amf --enable-cuda-llvm --enable-cuvid --enable-ffnvcodec --enable-nvdec --enable-nvenc --enable-dxva2 --enable-d3d11va --enable-libvpl --enable-libgme --enable-libopenmpt --enable-libopencore-amrwb --enable-libmp3lame --enable-libtheora --enable-libvo-amrwbenc --enable-libgsm --enable-libopencore-amrnb --enable-libopus --enable-libspeex --enable-libvorbis --enable-librubberband
  libavutil      58. 29.100 / 58. 29.100
  libavcodec     60. 31.102 / 60. 31.102
  libavformat    60. 16.100 / 60. 16.100
  libavdevice    60.  3.100 / 60.  3.100
  libavfilter     9. 12.100 /  9. 12.100
  libswscale      7.  5.100 /  7.  5.100
  libswresample   4. 12.100 /  4. 12.100
  libpostproc    57.  3.100 / 57.  3.100
Fontconfig error: Cannot load default config file: No such file: (null)
Input #0, lavfi, from 'color=size=1280x720:duration=11:rate=25:color=black':
  Duration: N/A, start: 0.000000, bitrate: N/A
  Stream #0:0: Video: wrapped_avframe, yuv420p, 1280x720 [SAR 1:1 DAR 16:9], 25 fps, 25 tbr, 25 tbn
[mov,mp4,m4a,3gp,3g2,mj2 @ 0000026262551280] Unknown cover type: 0x1.
Input #1, mov,mp4,m4a,3gp,3g2,mj2, from 'C:\Users\engsa\Desktop\CREATOCLONE\uploads\video-1766932163353-0.bin':
  Metadata:
    major_brand     : qt  
    minor_version   : 0
    compatible_brands: qt  
    creation_time   : 2025-10-15T08:38:31.000000Z
  Duration: 00:00:24.64, start: 0.000000, bitrate: 16561 kb/s
  Stream #1:0[0x1](und): Video: h264 (High) (avc1 / 0x31637661), yuv420p(tv, bt709, progressive), 1972x1080, 16365 kb/s, 50 fps, 50 tbr, 600 tbn (default)
    Metadata:
      creation_time   : 2025-10-15T08:38:31.000000Z
      handler_name    : Core Media Video
      vendor_id       : [0][0][0][0]
      encoder         : H.264
  Stream #1:1[0x2](und): Audio: aac (LC) (mp4a / 0x6134706D), 44100 Hz, stereo, fltp, 188 kb/s (default)
    Metadata:
      creation_time   : 2025-10-15T08:38:31.000000Z
      handler_name    : Core Media Audio
      vendor_id       : [0][0][0][0]
Input #2, jpeg_pipe, from 'C:\Users\engsa\Desktop\CREATOCLONE\uploads\image-1766932163863-1.bin':
  Duration: N/A, bitrate: N/A
  Stream #2:0: Video: mjpeg (Baseline), yuvj420p(pc, bt470bg/unknown/unknown), 200x200 [SAR 1:1 DAR 1:1], 25 fps, 25 tbr, 25 tbn
[mp3 @ 000002626263aa40] Estimating duration from bitrate, this may be inaccurate
Input #3, mp3, from 'C:\Users\engsa\Desktop\CREATOCLONE\uploads\audio-1766932163873-0.mp3':
  Metadata:
    encoder         : Lavf60.16.100
  Duration: 00:00:07.11, start: 0.000000, bitrate: 128 kb/s
  Stream #3:0: Audio: mp3, 44100 Hz, mono, fltp, 128 kb/s
Stream mapping:
  Stream #0:0 (wrapped_avframe) -> overlay
  Stream #1:0 (h264) -> scale:default
  Stream #1:1 (aac) -> adelay:default
  Stream #2:0 (mjpeg) -> scale:default
  Stream #3:0 (mp3float) -> adelay:default
  drawtext:default -> Stream #0:0 (libx264)
  amix:default -> Stream #0:1 (aac)
Press [q] to stop, [?] for help
Fontconfig error: Cannot load default config file: No such file: (null)
[swscaler @ 000002626ab15980] deprecated pixel format used, make sure you did set range correctly
[swscaler @ 000002626ad48e40] deprecated pixel format used, make sure you did set range correctly
    Last message repeated 2 times
[libx264 @ 0000026262fd8540] using SAR=1/1
[libx264 @ 0000026262fd8540] using cpu capabilities: MMX2 SSE2Fast SSSE3 SSE4.2 AVX FMA3 BMI2 AVX2
[libx264 @ 0000026262fd8540] profile High, level 3.1, 4:2:0, 8-bit
[libx264 @ 0000026262fd8540] 264 - core 164 r3172 c1c9931 - H.264/MPEG-4 AVC codec - Copyleft 2003-2023 - http://www.videolan.org/x264.html - options: cabac=1 ref=3 deblock=1:0:0 analyse=0x3:0x113 me=hex subme=7 psy=1 psy_rd=1.00:0.00 mixed_ref=1 me_range=16 chroma_me=1 trellis=1 8x8dct=1 cqm=0 deadzone=21,11 fast_pskip=1 chroma_qp_offset=-2 threads=22 lookahead_threads=3 sliced_threads=0 nr=0 decimate=1 interlaced=0 bluray_compat=0 constrained_intra=0 bframes=3 b_pyramid=2 b_adapt=1 b_bias=0 direct=1 weightb=1 open_gop=0 weightp=2 keyint=250 keyint_min=25 scenecut=40 intra_refresh=0 rc_lookahead=40 rc=crf mbtree=1 crf=23.0 qcomp=0.60 qpmin=0 qpmax=69 qpstep=4 ip_ratio=1.40 aq=1:1.00
Output #0, mp4, to 'C:\Users\engsa\Desktop\CREATOCLONE\uploads\render-1766932163353.mp4':
  Metadata:
    encoder         : Lavf60.16.100
  Stream #0:0: Video: h264 (avc1 / 0x31637661), yuv420p(progressive), 1280x720 [SAR 1:1 DAR 16:9], q=2-31, 25 fps, 12800 tbn
    Metadata:
      encoder         : Lavc60.31.102 libx264
    Side data:
      cpb: bitrate max/min/avg: 0/0/0 buffer size: 0 vbv_delay: N/A
  Stream #0:1: Audio: aac (LC) (mp4a / 0x6134706D), 44100 Hz, mono, fltp, 192 kb/s
    Metadata:
      encoder         : Lavc60.31.102 aac
frame=    0 fps=0.0 q=0.0 size=       0kB time=N/A bitrate=N/A speed=N/A    frame=   15 fps=0.0 q=28.0 size=     512kB time=00:00:03.18 bitrate=1318.6kbits/s speed=5.96x    frame=  153 fps=148 q=28.0 size=    4352kB time=00:00:08.73 bitrate=4083.5kbits/s speed=8.44x    [out#0/mp4 @ 0000026262a6ba40] video:4339kB audio:231kB subtitle:0kB other streams:0kB global headers:0kB muxing overhead: 0.227245%
frame=  275 fps=243 q=-1.0 Lsize=    4580kB time=00:00:10.95 bitrate=3423.5kbits/s speed=9.66x    
[libx264 @ 0000026262fd8540] frame I:2     Avg QP:22.31  size: 44974
[libx264 @ 0000026262fd8540] frame P:70    Avg QP:20.12  size: 24251
[libx264 @ 0000026262fd8540] frame B:203   Avg QP:20.00  size: 13079
[libx264 @ 0000026262fd8540] consecutive B-frames:  0.7%  1.5%  3.3% 94.5%
[libx264 @ 0000026262fd8540] mb I  I16..4:  8.7% 64.6% 26.7%
[libx264 @ 0000026262fd8540] mb P  I16..4:  1.8%  9.4% 10.2%  P16..4:  4.8%  4.7%  3.0%  0.0%  0.0%    skip:66.0%
[libx264 @ 0000026262fd8540] mb B  I16..4:  0.5%  0.7%  1.6%  B16..8:  9.4%  8.2%  3.9%  direct: 2.0%  skip:73.7%  L0:38.1% L1:37.7% BI:24.2%
[libx264 @ 0000026262fd8540] 8x8 transform intra:41.2% inter:30.6%
[libx264 @ 0000026262fd8540] coded y,uvDC,uvAC intra: 52.4% 38.6% 19.0% inter: 11.0% 4.6% 0.4%
[libx264 @ 0000026262fd8540] i16 v,h,dc,p: 58% 26% 10%  6%
[libx264 @ 0000026262fd8540] i8 v,h,dc,ddl,ddr,vr,hd,vl,hu: 37% 15% 30%  3%  3%  3%  3%  3%  3%
[libx264 @ 0000026262fd8540] i4 v,h,dc,ddl,ddr,vr,hd,vl,hu: 29% 19% 16%  5%  7%  6%  7%  5%  5%
[libx264 @ 0000026262fd8540] i8c dc,h,v,p: 69% 14% 14%  2%
[libx264 @ 0000026262fd8540] Weighted P-Frames: Y:14.3% UV:10.0%
[libx264 @ 0000026262fd8540] ref P L0: 58.9% 14.2% 17.7%  7.2%  2.0%
[libx264 @ 0000026262fd8540] ref B L0: 92.7%  5.6%  1.7%
[libx264 @ 0000026262fd8540] ref B L1: 97.9%  2.1%
[libx264 @ 0000026262fd8540] kb/s:3231.01
[aac @ 0000026262fd9140] Qavg: 59422.285
